name GIL12_slow4Moments.mot
datacolumns 7
datarows 54
range 0.95000005 1.39166665
endheader

                time	          RHipMoment	          LHipMoment	         RKneeMoment	         LKneeMoment	        RAnkleMoment	        LAnkleMoment	
          0.95000005	       -248.53828430	        319.48120117	         79.41734314	        117.85069275	        365.06649780	       -140.89938354	
          0.95833337	       -213.80206299	        338.29708862	         65.58071899	        116.25570679	        308.88470459	       -127.27142334	
          0.96666670	       -208.23242188	        369.17340088	         67.58069611	        100.40431976	        254.33433533	       -117.46503448	
          0.97500002	       -212.49546814	        391.45007324	         74.62071228	         80.62932587	        200.25280762	       -108.65402985	
          0.98333335	       -165.25816345	        382.60421753	         50.66279602	         71.86964417	        151.66885376	       -102.06217957	
          0.99166667	       -127.55337524	        358.56835938	         28.57414246	         69.41538239	        107.91708374	        -97.03972626	
          1.00000000	       -104.20401764	        340.75347900	         12.51353645	         64.27005005	         70.42318726	        -90.41587830	
          1.00833344	        -90.68943787	        329.56542969	         -0.13810223	         59.02902222	         40.26634216	        -87.01827240	
          1.01666665	        -95.71066284	        321.01803589	         -1.79097223	         54.80183792	         17.49144936	        -84.61637115	
          1.02500010	       -102.52923584	        314.41470337	         -0.12051550	         51.45883560	          2.07940936	        -82.23799133	
          1.03333330	       -114.76955414	        309.31588745	          9.44525528	         47.84268951	        -10.95211601	        -77.72362518	
          1.04166675	        -40.80743790	        304.80426025	        -35.61784744	         45.16482162	        -21.23903847	        -74.78969574	
          1.04999995	        -34.62725449	        297.65206909	        -28.95653534	         43.76932907	        -21.31361580	        -71.40349579	
          1.05833340	        -28.63788986	        284.44671631	        -19.09466553	         46.23927307	        -20.35691452	        -69.40648651	
          1.06666660	        -24.56285667	        266.68698120	         -7.18400955	         49.70280838	        -18.52119255	        -65.44622040	
          1.07500005	        -23.04677582	        247.20507813	          5.30380774	         54.82693481	        -16.10791016	        -62.74229813	
          1.08333337	        -24.29304314	        229.75010681	         16.79852104	         59.29317856	        -13.50333500	        -58.89624405	
          1.09166670	        -28.61124420	        214.07571411	         25.86212540	         63.44433594	        -11.08658028	        -56.32163620	
          1.10000002	        -35.73798370	        198.09419250	         31.54671478	         66.91988373	         -9.13805103	        -53.32523727	
          1.10833335	        -44.87022400	        187.06452942	         33.65018082	         66.14108276	         -7.77768230	        -47.38507080	
          1.11666667	        -54.37818527	        173.40362549	         32.61123276	         68.11386871	         -6.97031975	        -43.30226898	
          1.12500000	        -63.15627670	        166.17359924	         29.11224747	         68.21949768	         -6.58205032	        -40.64496231	
          1.13333344	        -69.68104553	        158.05899048	         23.79474449	         67.93127441	         -6.45252609	        -36.81480789	
          1.14166665	        -73.29245758	        151.66268921	         17.37829018	         64.92781067	         -6.45261765	        -31.33251953	
          1.15000010	        -73.07859039	        142.82685852	         10.73441982	         64.81151581	         -6.50515079	        -26.39641190	
          1.15833330	        -71.06179047	        134.50968933	          4.65820932	         64.46546173	         -6.57948399	        -19.57968521	
          1.16666675	        -67.61170959	        121.20007324	         -0.33125016	         68.35475159	         -6.67503643	        -14.15229702	
          1.17499995	        -64.20220947	        113.32263184	         -3.93007874	         67.92873383	         -6.79237175	         -5.22652149	
          1.18333340	        -60.65105438	        105.08988190	         -5.81584978	         69.72779083	         -6.91236830	          3.59810233	
          1.19166660	        -60.04856873	         95.91673279	         -5.60368299	         73.02628326	         -7.01129389	         11.97769070	
          1.20000005	        -62.44321442	         85.97153473	         -3.45945358	         77.68109131	         -7.09477329	         20.21324348	
          1.20833337	        -67.57015991	         76.69010162	         -0.53834522	         80.02731323	         -7.21197367	         29.79487610	
          1.21666670	        -71.67905426	         64.69182587	          1.57728994	         83.54515076	         -7.44135857	         39.08196259	
          1.22500002	        -73.78340912	         52.95198059	          1.62903619	         86.24324799	         -7.85340309	         47.42577362	
          1.23333335	        -71.57410431	         40.40002441	         -1.06406999	         89.74005127	         -8.46902180	         54.74493027	
          1.24166667	        -65.16912079	         28.80757713	         -6.58027601	         91.02344513	         -9.24188328	         63.71515656	
          1.25000000	        -53.96915817	         17.18445587	        -14.18777943	         92.17771912	        -10.04449177	         73.18634796	
          1.25833333	        -41.98225784	         11.56278324	        -21.97029495	         88.45528412	        -10.67984009	         86.60185242	
          1.26666665	        -33.35035706	          4.22865629	        -27.44099236	         84.84801483	        -10.95945072	        100.66096497	
          1.27499998	        -31.72356987	          0.90309793	        -29.11508751	         78.51860046	        -10.78675175	        116.56209564	
          1.28333330	        -36.92097855	         -5.06947088	        -27.09666634	         74.05266571	        -10.19845676	        134.03079224	
          1.29166675	        -47.49726105	         -9.74133682	        -22.48812485	         69.08596802	         -9.36032581	        154.54652405	
          1.30000007	        -60.10615540	        -20.44108391	        -16.81249237	         67.96361542	         -8.52287674	        178.33914185	
          1.30833340	        -71.49133301	        -30.35287857	        -11.70482731	         66.49578094	         -7.96261215	        207.13333130	
          1.31666672	        -78.15842438	        -44.17418289	         -8.64486313	         68.48871613	         -7.88935375	        234.91381836	
          1.32500005	        -78.61992645	        -50.50478363	         -8.38736153	         64.91658020	         -8.34647465	        266.32321167	
          1.33333337	        -73.54167175	        -61.45019531	        -10.53597069	         62.10964966	         -9.20889473	        296.97256470	
          1.34166670	        -65.50339508	        -69.63892365	        -14.03190994	         53.74858093	        -10.25434589	        329.52066040	
          1.35000002	        -57.46120834	        -82.59154510	        -17.87130737	         44.86696625	        -11.23905182	        360.81500244	
          1.35833335	        -51.84918976	        -93.67631531	        -21.27611351	         31.68222618	        -11.96449471	        392.23233032	
          1.36666667	        -49.81239319	       -104.32585144	        -23.66093254	         15.82491493	        -12.32129860	        425.11904907	
          1.37500000	        -51.11500549	       -110.82726288	        -24.80307579	         -2.44031405	        -12.30493546	        458.73043823	
          1.38333333	        -53.85643005	       -120.29463959	        -25.13540077	        -17.72313309	        -11.98960781	        492.91183472	
          1.39166665	        -54.94625854	       -121.48641968	        -25.62220383	        -34.52628326	        -11.46991444	        527.41571045	
